<?xml version="1.0" encoding="utf-8"?>
<!-- Generator: Adobe Illustrator 23.0.0, SVG Export Plug-In . SVG Version: 6.00 Build 0)  -->
<svg version="1.1" id="Layer_1" xmlns="http://www.w3.org/2000/svg" xmlns:xlink="http://www.w3.org/1999/xlink" x="0px" y="0px"
	 viewBox="0 0 1440 810" style="enable-background:new 0 0 1440 810;" xml:space="preserve">
<style type="text/css">
	.st0{clip-path:url(#SVGID_2_);fill:#FFFFFF;}
	.st1{clip-path:url(#SVGID_4_);fill:#F0FF42;}
	.st2{clip-path:url(#SVGID_6_);fill:#FF8DC7;}
	.st3{clip-path:url(#SVGID_8_);}
	.st4{clip-path:url(#SVGID_10_);}
	.st5{clip-path:url(#SVGID_12_);}
	.st6{clip-path:url(#SVGID_14_);fill:#A149FA;}
	.st7{clip-path:url(#SVGID_16_);fill:#367E18;}
	.st8{clip-path:url(#SVGID_16_);fill:#5BB318;}
	.st9{clip-path:url(#SVGID_18_);fill:#5FD068;}
	.st10{clip-path:url(#SVGID_18_);fill:#47B23F;}
	.st11{clip-path:url(#SVGID_18_);fill:#7C6E52;}
	.st12{clip-path:url(#SVGID_20_);fill:#5FD068;}
	.st13{clip-path:url(#SVGID_20_);fill:#47B23F;}
	.st14{clip-path:url(#SVGID_20_);fill:#7C6E52;}
	.st15{clip-path:url(#SVGID_22_);fill:#5FD068;}
	.st16{clip-path:url(#SVGID_22_);fill:#47B23F;}
	.st17{clip-path:url(#SVGID_22_);fill:#7C6E52;}
</style>
<g>
	<defs>
		<rect id="SVGID_1_" width="1440" height="810"/>
	</defs>
	<clipPath id="SVGID_2_">
		<use xlink:href="#SVGID_1_"  style="overflow:visible;"/>
	</clipPath>
	<rect class="st0" width="1440" height="810"/>
</g>
<g>
	<defs>
		<rect id="SVGID_3_" width="1440" height="810"/>
	</defs>
	<clipPath id="SVGID_4_">
		<use xlink:href="#SVGID_3_"  style="overflow:visible;"/>
	</clipPath>
	<rect class="st1" width="1440" height="810"/>
</g>
<g>
	<defs>
		<rect id="SVGID_5_" width="1440" height="810"/>
	</defs>
	<clipPath id="SVGID_6_">
		<use xlink:href="#SVGID_5_"  style="overflow:visible;"/>
	</clipPath>
	<path class="st2" d="M464.2-271.3H298.7C156.2-202.9,36.2-95.9-47.8,37.2v117.9C-9.7,73.2,42.5-2.5,108.2-68.2
		C207.9-167.9,330.6-237.3,464.2-271.3z"/>
	<path class="st2" d="M1433.9,182.3c-76.7-199.4-228.1-362.2-419.6-453.5H848.8c133.6,33.9,256.3,103.3,355.9,203
		c146.1,146.1,227,341.3,227,548.5c0,0.5,0,1.6,0,2.1c-0.5,181.1-71.5,351.2-199.4,479.6c-128.4,128.4-299.6,199.4-481.7,199.4
		S397.9,1090.4,269,962C140.6,833.6,69.6,662.4,69.6,480.3c0-0.5,0-1.6,0-2.1c0.5-156,61.6-302.2,171.7-412.8
		C352-45.3,499.1-106.3,655.7-106.3s303.7,61.1,414.4,171.7c110.6,110.6,171.7,257.8,171.7,414.4c0,0.5,0,1.6,0,2.1
		c-0.5,130.5-51.7,253.1-144,345.5c-92.9,92.9-216.1,144-347.6,144s-254.7-51.1-347.6-144c-92.9-92.9-144-216.1-144-347.6
		c0-0.5,0-1.6,0-2.1c1-218.2,179-395.1,397.2-395.1c219.2,0,397.2,178,397.2,397.2c0,1,0,1.6,0,2.6
		c-1,165.4-136.2,300.1-302.7,300.1c-167,0-302.7-135.7-302.7-302.7c0-1,0-1.6,0-2.6c1.6-113.8,93.9-205.6,207.7-205.6
		c114.8,0,207.7,93.4,207.7,207.7c0,1,0,1.6,0,2.6c-1.6,61.6-51.7,110.6-113.3,110.6c-62.6,0-113.3-50.6-113.3-113.3
		c0-10.4,8.4-18.8,18.8-18.8c10.4,0,18.8,8.4,18.8,18.8c0,41.8,33.9,75.7,75.7,75.7s75.7-33.9,75.7-75.7c0-0.5,0-1,0-1.6
		c-1-93.4-76.7-169.1-170.1-169.1c-93.9,0-170.7,76.2-170.7,170.7c0,0.5,0,1,0,1.6c1,145.6,119.5,263.6,265.1,263.6
		c146.1,0,265.1-119,265.1-265.1c0-0.5,0-1,0-1.6c-1-197.8-161.8-358-359.6-358c-198.3,0-359.6,161.3-359.6,359.6c0,0.5,0,1,0,1.6
		c1,249.5,204.1,452.5,454.1,452.5c250.5,0,454.1-203.5,454.1-454.1c0-0.5,0-1,0-1.6c0.5-300.6-245.3-545.9-547-545.9
		c-302.7,0-549,245.8-549,548.5c0,0.5,0,1,0,1.6c1,353.8,289.1,641.9,643.5,641.9c354.9,0,643.5-288.6,643.5-643.5c0-0.5,0-1,0-1.6
		c-1-406-331.9-736.4-738-736.4C326.4-257.7,46.1-39.5-47.8,260v455.1c67.3,228.1,229.6,416,441,516.7h165.4
		c-133.6-33.9-256.3-103.3-355.9-203C56,882.1-24.3,687.5-24.3,480.3c0-0.5,0-1.6,0-2.1C-23.8,297.1,47.2,127,175-1.4
		c128.4-128.4,299.6-199.4,481.7-199.4s352.8,71,481.7,199.4c128.4,128.4,199.4,299.6,199.4,481.7c0,0.5,0,1.6,0,2.1
		c-0.5,156-61.6,302.2-171.7,412.3c-110.6,110.6-257.8,171.7-414.4,171.7S448,1005.3,337.3,894.7C225.7,784,164.6,636.8,164.6,480.3
		c0-0.5,0-1.6,0-2.1c0.5-130.5,51.7-253.1,144-345.5c92.9-92.9,216.1-144,347.6-144s254.7,51.1,347.6,144s144,216.1,144,347.6
		c0,0.5,0,1.6,0,2.1c-1,218.2-179,395.1-397.2,395.1c-219.2,0-397.2-178-397.2-397.2c0-1,0-1.6,0-2.6
		c1.6-165.4,136.2-300.1,302.7-300.1c167,0,302.7,135.7,302.7,302.7c0,1,0,1.6,0,2.6c-1.6,113.8-93.9,205.6-207.7,205.6
		c-114.8,0-207.7-93.4-207.7-207.7c0-1,0-1.6,0-2.6c1.6-61.6,51.7-110.6,113.3-110.6c62.6,0,113.3,50.6,113.3,113.3
		c0,10.4-8.4,18.8-18.8,18.8s-18.8-8.4-18.8-18.8c0-41.8-33.9-75.7-75.7-75.7c-41.8,0-75.7,33.9-75.7,75.7c0,0.5,0,1,0,1.6
		c1,93.4,76.7,169.1,170.1,169.1c93.9,0,170.7-76.2,170.7-170.7c0-0.5,0-1,0-1.6c-1-145.6-119.5-263.6-265.1-263.6
		c-146.1,0-265.1,119-265.1,265.1c0,0.5,0,1,0,1.6c1,197.3,161.8,358,359.6,358c198.3,0,359.6-161.3,359.6-359.6c0-0.5,0-1,0-1.6
		c-1-250-204.6-453-454.1-453c-250.5,0-454.1,203.5-454.1,454.1c0,0.5,0,1,0,1.6c1,301.7,246.9,547,548.5,547
		c302.7,0,548.5-246.3,548.5-548.5c0-0.5,0-1,0-1.6c-1-353.8-289.1-641.9-643.5-641.9s-643,288.6-643,643.5c0,0.5,0,1,0,1.6
		c1,406,331.4,736.4,738,736.4c330.4,0,610.6-218.2,704.6-517.7V245.4c-5.2-18.3-11.5-36.5-18.3-54.3l-4.2-8.4L1433.9,182.3z"/>
	<path class="st2" d="M1432.8,182.8l4.2,8.4c-1-3.1-2.1-6.3-3.1-8.9L1432.8,182.8z"/>
	<path class="st2" d="M1198.5-271.3h-102.8c63.7,37.1,122.6,83,176.4,136.2c78.8,78.8,140.4,170.1,183.2,269.3V10
		C1390-100.6,1302.3-196.1,1198.5-271.3z"/>
	<path class="st2" d="M943.3,1231.8h165.4c142.5-68.4,262.5-175.4,346.5-308.4V805.4c-38.1,81.9-90.3,157.6-156,222.9
		C1199.5,1128.5,1076.9,1197.9,943.3,1231.8z"/>
</g>
<g>
	<defs>
		<rect id="SVGID_7_" width="1440" height="810"/>
	</defs>
	<clipPath id="SVGID_8_">
		<use xlink:href="#SVGID_7_"  style="overflow:visible;"/>
	</clipPath>
	<g class="st3">
		<defs>
			<rect id="SVGID_9_" width="1440" height="810"/>
		</defs>
		<clipPath id="SVGID_10_">
			<use xlink:href="#SVGID_9_"  style="overflow:visible;"/>
		</clipPath>
		<g class="st4">
			<defs>
				<rect id="SVGID_11_" width="1440" height="810"/>
			</defs>
			<clipPath id="SVGID_12_">
				<use xlink:href="#SVGID_11_"  style="overflow:visible;"/>
			</clipPath>
			<g class="st5">
				<defs>
					
						<rect id="SVGID_13_" x="-48.9" y="-270.7" transform="matrix(0.8635 -0.5044 0.5044 0.8635 -146.5826 420.0323)" width="1503.1" height="1503.1"/>
				</defs>
				<clipPath id="SVGID_14_">
					<use xlink:href="#SVGID_13_"  style="overflow:visible;"/>
				</clipPath>
				<path class="st6" d="M530.4-289l142.9-83.4c157.5-12.8,315.1,19,454.8,91.5l59.5,101.8c-74.2-51.5-157.5-90.6-247.4-114.2
					C803.8-329,662.9-327.1,530.4-289z"/>
				<path class="st6" d="M-78.1,591.7C-112.5,380.9-63.9,164,55.4-11.5L198.3-95C100,1.7,29.1,123.5-6.7,259.9
					C-59.1,459.8-30.5,669.1,74,848c0.3,0.5,0.8,1.4,1.1,1.8c91.8,156.1,238.9,267.2,414.1,313.6c175.6,46.1,359.2,21,516.5-70.8
					c157.3-91.9,268.8-239.2,315.4-415.1c46.1-175.6,21-359.2-70.8-516.5c-0.3-0.5-0.8-1.4-1.1-1.8
					C1170,24.7,1043.5-70.7,892.6-110.7C741.3-150.4,583.4-128.9,448.2-50S216.7,156,177,307.3c-39.7,151.3-18.2,309.2,60.7,444.4
					c0.3,0.5,0.8,1.4,1.1,1.8c66.3,112.4,172.3,192.5,298.6,225.7c127.1,33.4,259.2,15.4,372.8-50.9s194.1-172.6,227.5-299.7
					c33.4-127.1,15.4-259.2-50.9-372.8c-0.3-0.5-0.8-1.4-1.1-1.8C974.8,66.2,731.9,3.1,543.5,113.2
					c-189.3,110.6-253.2,354-142.6,543.3c0.5,0.9,0.8,1.4,1.3,2.3c84.3,142.3,269,190.4,412.7,106.4
					c144.2-84.2,192.9-269.8,108.7-414.1c-0.5-0.9-0.8-1.4-1.3-2.3c-58.7-97.5-184.8-130.2-283.1-72.8
					C540.1,334,507,461.5,564.6,560.2c0.5,0.9,0.8,1.4,1.3,2.3c32.4,52.4,100.4,69.5,153.6,38.4c54.1-31.6,72.3-100.8,40.7-154.9
					c-5.3-9-16.7-12-25.7-6.7c-9,5.3-12,16.7-6.7,25.7c21.1,36.1,8.9,82.5-27.2,103.5c-36.1,21.1-82.5,8.9-103.5-27.2
					c-0.3-0.5-0.5-0.9-0.8-1.4c-46.2-81.2-19-184.7,61.6-231.8c81.1-47.4,185.8-20.3,233.4,61.3c0.3,0.5,0.5,0.9,0.8,1.4
					c72.5,126.3,29.7,287.9-96,361.3c-126.2,73.7-288.9,31-362.7-95.2c-0.3-0.5-0.5-0.9-0.8-1.4c-98.9-171.3-40.9-390.8,129.9-490.5
					c171.2-100,391.8-42.1,491.9,129.1c0.3,0.5,0.5,0.9,0.8,1.4c124.9,215.9,52,493.6-163.8,619.7
					c-216.3,126.4-494.7,53.3-621.1-163c-0.3-0.5-0.5-0.9-0.8-1.4C117.5,471.4,206,135.6,466.5-16.5
					c261.4-152.7,598.1-64.7,750.7,196.7c0.3,0.5,0.5,0.9,0.8,1.4c177.6,306.1,74.1,700.1-231.9,878.9
					c-306.4,179-701.2,75.4-880.2-231.1c-0.3-0.5-0.5-0.9-0.8-1.4C-98.7,476.8,20.4,24.7,371-180.1
					c285.3-166.6,637.3-119.6,869.5,91.7l229.5,393c56.9,230.9,11.5,475-120.2,668.6l-142.9,83.4c98.3-96.7,169.1-218.5,204.9-354.8
					c52.7-200.6,23.9-409.2-80.6-588.1c-0.3-0.5-0.8-1.4-1.1-1.8c-91.8-156.1-238.9-267.2-414.1-313.6
					c-175.6-46.1-359.2-21-516.5,70.8C242.4-39.1,130.8,108.2,84.3,284.1c-46.1,175.6-21,359.2,70.8,516.5c0.3,0.5,0.8,1.4,1.1,1.8
					c79.2,134.5,205.6,229.9,356.2,269.4c151.3,39.7,309.2,18.2,444.4-60.7s231.5-205.9,271.2-357.3
					c40.6-151.9,19.1-309.8-59.8-444.9c-0.3-0.5-0.8-1.4-1.1-1.8C1100.8,94.7,994.8,14.6,868.4-18.6C741.4-52,609.2-34,495.7,32.3
					S301.5,205,268.2,332s-15.4,259.2,50.9,372.8c0.3,0.5,0.8,1.4,1.1,1.8C431.1,894.5,674,957.5,862.4,847.4
					c189.3-110.6,253.2-354,142.6-543.3c-0.5-0.9-0.8-1.4-1.3-2.3c-84.8-142.1-269-190.4-412.7-106.4
					C446.7,279.7,398,465.3,482.3,609.5c0.5,0.9,0.8,1.4,1.3,2.3c58.7,97.5,184.8,130.2,283.1,72.8
					c99.1-57.9,132.2-185.4,74.6-284.1c-0.5-0.9-0.8-1.4-1.3-2.3c-32.4-52.4-100.4-69.5-153.6-38.4
					c-54.1,31.6-72.3,100.8-40.7,154.9c5.3,9,16.7,12,25.7,6.7s12-16.7,6.7-25.7c-21.1-36.1-8.9-82.5,27.2-103.5
					c36.1-21.1,82.5-8.9,103.5,27.2c0.3,0.5,0.5,0.9,0.8,1.4c46.2,81.2,19,184.7-61.6,231.8c-81.1,47.4-185.8,20.3-233.4-61.3
					c-0.3-0.5-0.5-0.9-0.8-1.4c-72.5-126.3-29.7-287.9,96-361.3c126.2-73.7,288.9-31,362.7,95.2c0.3,0.5,0.5,0.9,0.8,1.4
					c98.6,170.9,40.9,390.8-129.9,490.5c-171.2,100-391.8,42.1-491.9-129.1c-0.3-0.5-0.5-0.9-0.8-1.4
					C225.4,468.8,298.8,190.9,514.2,65c216.3-126.4,494.7-53.3,621.1,163c0.3,0.5,0.5,0.9,0.8,1.4c151.3,261,62.7,596.8-197.8,748.9
					c-261.4,152.7-597.9,64-750.3-197c-0.3-0.5-0.5-0.9-0.8-1.4C9.6,474,113.1,79.9,419.1-98.8s700.8-75.1,879.8,231.3
					c0.3,0.5,0.5,0.9,0.8,1.4c203.9,351.1,85.3,803-265.8,1008.1c-285.3,166.6-637.3,119.6-869.5-91.7l-229.5-393
					c-4.7-18.4-8.5-37.3-11.6-56.1l-0.6-9.3L-78.1,591.7z"/>
				<path class="st6" d="M-103.7,81.4l88.8-51.9c-36.3,64.1-64,133.5-83.6,206.6c-28.3,107.8-35.4,217.7-22.3,324.9l-62.7-107.3
					C-183,325.4-155.4,198.7-103.7,81.4z"/>
				<path class="st6" d="M1526.1,400.5l62.4,106.8c-0.5,128.4-27.8,255.6-79.8,372.4l-88.8,51.9c36.3-64.1,64-133.5,83.6-206.6
					C1531.6,617.9,1539.1,507.7,1526.1,400.5z"/>
			</g>
		</g>
	</g>
</g>
<g>
	<defs>
		<rect id="SVGID_15_" y="654.2" width="1440" height="155.8"/>
	</defs>
	<clipPath id="SVGID_16_">
		<use xlink:href="#SVGID_15_"  style="overflow:visible;"/>
	</clipPath>
	<path class="st7" d="M1481.6,665.8c-147.1-10.5-355-18.6-551.8-2.9c-320.1,25.6-537.9,52.4-947,48.5v61.4l1498.8,40.9V665.8z"/>
	<path class="st8" d="M1481.6,773.5c-478.6-19.6-508.6-45-869.3-76.1c-234.2-20.2-470.2-16-629.5-8.7v138.6l1498.8,7.1V773.5z"/>
</g>
<g>
	<defs>
		<rect id="SVGID_17_" x="22.5" y="274.5" width="152.3" height="430.3"/>
	</defs>
	<clipPath id="SVGID_18_">
		<use xlink:href="#SVGID_17_"  style="overflow:visible;"/>
	</clipPath>
	<path class="st9" d="M22.5,506.5c0,27,19,68.9,72.7,68.9c0.7,0,1.4,0,2.1,0c52.1-0.5,79.3-20.4,79.3-55.8c0-35.4-33.8-29.3-33.8-52
		s20.6-11,20.6-48.3s-36.6-37.4-36.6-57.9s19-15.4,19-45.5c0-13.9-9.8-23.8-20.4-30.5c-1.9-1.2-3.9-2.4-5.9-3.4c-2-1-4.1-2-6.2-2.8
		c-2.1-0.8-4.3-1.5-6.5-2.2c-2.2-0.6-4.4-1.1-6.6-1.5c-2.2-0.4-4.5-0.6-6.8-0.8s-4.5-0.2-6.8-0.1c-2.3,0.1-4.5,0.3-6.8,0.6
		c-2.3,0.3-4.5,0.7-6.7,1.3c-9.6,2.4-19,7.2-23.6,16c-2,3.9-3,8.1-2.9,12.5c0,3.8,0,6.8,0.4,9.6c0,1.1,0.3,2,0.4,2.9
		c3.2,21.1,14.6,20.2,14.6,40.3c0,23.5-33.8,29.4-33.8,55.1c0,25.7,19.8,22.9,19.8,42.5C48.2,474.9,22.5,479.3,22.5,506.5z"/>
	<path class="st10" d="M22.5,506.5c0,27,19,68.9,72.7,68.9c0.7,0,1.4,0,2.1,0C62,573.9,58.5,539.7,58.5,521
		c0-18.7,26.4-24.9,26.4-43.9c0-19-25-32.3-25-52.1s19.7-34.5,19.7-70.6c0-33.4-28.2-23.4-32.2-37.3c3.2,21.1,14.6,20.2,14.6,40.3
		c0,23.5-33.8,29.4-33.8,55.1s19.8,22.9,19.8,42.5C48.1,474.6,22.5,479.3,22.5,506.5z"/>
	<path class="st11" d="M96.2,413.5c0,0,6.8,96.1,7.3,145.1c0,0,9-29.8,28.7-42.2c0,0-24.2,37.1-21.9,68c2.2,30.9-1.7,92.8,1.7,110.7
		c3.4,18-40.5,16.3-36.6,0c3.9-16.3,18-161.4-8.4-213.1c0,0,16.9,20.8,20.8,32.6c0,0,3.4-103.4,3.4-115.2
		C91.1,387.6,96.2,413.5,96.2,413.5z"/>
</g>
<g>
	<defs>
		<rect id="SVGID_19_" x="695.1" y="431.1" width="90.1" height="254.1"/>
	</defs>
	<clipPath id="SVGID_20_">
		<use xlink:href="#SVGID_19_"  style="overflow:visible;"/>
	</clipPath>
	<path class="st12" d="M695.1,568.1c0,15.9,11.3,40.7,43,40.7c0.4,0,0.8,0,1.3,0c30.8-0.3,46.9-12,46.9-32.9c0-20.9-20-17.3-20-30.7
		s12.2-6.5,12.2-28.5s-21.6-22.1-21.6-34.2s11.3-9.1,11.3-26.8c0-8.2-5.8-14.1-12.1-18c-2.3-1.5-4.6-2.7-7.2-3.7
		c-2.5-1-5.1-1.7-7.8-2.1c-2.7-0.5-5.3-0.6-8-0.5c-2.7,0.1-5.3,0.5-8,1.1c-5.7,1.4-11.3,4.2-14,9.5c-1.2,2.3-1.8,4.8-1.7,7.4
		c0,2.2,0,4,0.2,5.6c0,0.6,0.2,1.2,0.2,1.7c1.9,12.5,8.6,11.9,8.6,23.8c0,13.9-20,17.4-20,32.5c0,15.2,11.7,13.5,11.7,25.1
		S695.1,552.1,695.1,568.1z"/>
	<path class="st13" d="M695.1,568.1c0,15.9,11.3,40.7,43,40.7c0.4,0,0.8,0,1.3,0c-20.9-0.8-23-21-23-32.1c0-11,15.6-14.7,15.6-25.9
		c0-11.2-14.8-19-14.8-30.7c0-11.7,11.7-20.3,11.7-41.7c0-19.7-16.7-13.8-19-22c1.9,12.5,8.6,11.9,8.6,23.8c0,13.9-20,17.4-20,32.5
		c0,15.2,11.7,13.5,11.7,25.1S695.1,552.1,695.1,568.1z"/>
	<path class="st14" d="M738.6,513.2c0,0,4,56.8,4.3,85.6c0,0,5.3-17.6,17-24.9c0,0-14.3,21.9-13,40.2c1.3,18.3-1,54.8,1,65.4
		c2,10.6-23.9,9.6-21.6,0c2.3-9.6,10.7-95.3-5-125.8c0,0,10,12.3,12.3,19.2c0,0,2-61.1,2-68C735.6,497.9,738.6,513.2,738.6,513.2z"
		/>
</g>
<g>
	<defs>
		<rect id="SVGID_21_" x="1253.4" y="455.4" width="112.6" height="317.8"/>
	</defs>
	<clipPath id="SVGID_22_">
		<use xlink:href="#SVGID_21_"  style="overflow:visible;"/>
	</clipPath>
	<path class="st15" d="M1253.4,626.7c0,19.9,14.1,50.9,53.7,50.9c0.5,0,1.1,0,1.6,0c38.5-0.3,58.6-15,58.6-41.2
		c0-26.2-25-21.6-25-38.4c0-16.8,15.2-8.1,15.2-35.7s-27-27.6-27-42.8c0-15.2,14.1-11.4,14.1-33.6c0-10.3-7.3-17.6-15.1-22.5
		c-2.8-1.8-5.8-3.4-8.9-4.6c-3.1-1.2-6.4-2.1-9.7-2.7c-3.3-0.6-6.7-0.8-10-0.7c-3.4,0.1-6.7,0.6-10,1.4c-7.1,1.8-14.1,5.3-17.4,11.8
		c-1.5,2.9-2.2,6-2.1,9.2c0,2.8,0,5,0.3,7.1c0,0.8,0.2,1.5,0.3,2.2c2.4,15.6,10.8,14.9,10.8,29.7c0,17.4-25,21.7-25,40.7
		c0,19,14.6,16.9,14.6,31.4C1272.4,603.4,1253.4,606.7,1253.4,626.7z"/>
	<path class="st16" d="M1253.4,626.7c0,19.9,14.1,50.9,53.7,50.9c0.5,0,1.1,0,1.6,0c-26.1-1-28.7-26.3-28.7-40.1
		c0-13.8,19.5-18.4,19.5-32.5c0-14.1-18.5-23.8-18.5-38.4c0-14.6,14.6-25.5,14.6-52.1c0-24.7-20.8-17.3-23.8-27.6
		c2.4,15.6,10.8,14.9,10.8,29.7c0,17.4-25,21.7-25,40.7c0,19,14.6,16.9,14.6,31.4C1272.3,603.2,1253.4,606.7,1253.4,626.7z"/>
	<path class="st17" d="M1307.8,558c0,0,5,71,5.4,107.1c0,0,6.7-22,21.2-31.1c0,0-17.9,27.4-16.2,50.2c1.7,22.8-1.2,68.5,1.3,81.8
		s-29.9,12.1-27,0c2.9-12.1,13.3-119.2-6.2-157.4c0,0,12.5,15.4,15.4,24.1c0,0,2.5-76.4,2.5-85.1S1307.8,558,1307.8,558z"/>
</g>
</svg>
