<?xml version="1.0" encoding="utf-8"?>
<!-- Generator: Adobe Illustrator 26.2.1, SVG Export Plug-In . SVG Version: 6.00 Build 0)  -->
<svg version="1.1" id="Layer_1" xmlns="http://www.w3.org/2000/svg" xmlns:xlink="http://www.w3.org/1999/xlink" x="0px" y="0px"
	 viewBox="0 0 1920 1080" style="enable-background:new 0 0 1920 1080;" xml:space="preserve">
<style type="text/css">
	.st0{fill:#B9B6D1;}
	.st1{clip-path:url(#SVGID_00000109008220996627595700000011196681218720647838_);fill:#C9C7D4;}
	.st2{clip-path:url(#SVGID_00000109008220996627595700000011196681218720647838_);}
	.st3{fill-rule:evenodd;clip-rule:evenodd;fill:#737087;}
	.st4{fill:#50428C;}
	.st5{fill:#3B2B89;}
	.st6{opacity:0.36;clip-path:url(#SVGID_00000109008220996627595700000011196681218720647838_);fill:#C9C7D4;}
	.st7{fill:#42269D;}
	.st8{fill:#261984;}
	.st9{fill:#301969;}
	.st10{fill:#422883;}
	.st11{fill:#392074;}
	.st12{fill:#15063F;}
</style>
<rect class="st0" width="1920" height="1080"/>
<g>
	<defs>
		<rect id="SVGID_1_" width="1920" height="1080"/>
	</defs>
	<clipPath id="SVGID_00000100363740312106859660000017206308265267632512_">
		<use xlink:href="#SVGID_1_"  style="overflow:visible;"/>
	</clipPath>
	<path style="clip-path:url(#SVGID_00000100363740312106859660000017206308265267632512_);fill:#C9C7D4;" d="M1981.8,231.1
		c-90.2-75.8-688.8,33.7-434.5-33c254.3-66.7,469.6-29.7,518.2-29.7S1986.8,62,1608.9,83c-377.9,21-351.9,48.6-597.1,100.9
		c-249.6,53.3-410.9,24.6-535.5-7.5c-124.6-32,70.2-36.1,309.7-61.2c239.4-25.1-91.6-39.1-574-99.4
		C-177.7-32.9-48.7,109.6-80.6,123.4v158.4c7.3,2.4,14.5,5,21.9,7.8c148.8,56.8,84,63.4-21.9,59.3v13.8
		c66.1-1.9,142.4-7.7,225.4-19.8c391.2-56.8,607.1,140.8,438.9,24.8c-168.2-116-613.3,3.5-439.2-96.9
		c174.1-100.4,506.4-2,787.2-16.1c280.8-14,445.1-67.1,237.4,34.9c-113.4,55.6-201.1,65.5-253.6,62.8
		c111.3,34.3,166.6-40.6,557.3-111.2c402.2-72.7,448.9,69.7,592.7,80.4C2209.3,332.3,2072,306.9,1981.8,231.1z"/>
	<path style="clip-path:url(#SVGID_00000100363740312106859660000017206308265267632512_);fill:#C9C7D4;" d="M2041.2,588.3
		c-249.6,53.3-410.9,24.6-535.5-7.5c-124.6-32,70.2-36.1,309.7-61.2c239.4-25.1-91.6-39.1-574-99.4
		C851.8,371.6,980.8,514,948.9,527.8c0,0-43.5,161,0,158.4s0,80.8,0,80.8c66.1-1.9,142.4-7.7,225.4-19.8
		c391.2-56.8,607.1,140.8,438.9,24.8c-168.2-116-613.3,3.5-439.2-96.9c174.1-100.4,618.9,36.6,787.2-16.1
		C2129.5,606.5,2041.2,588.3,2041.2,588.3z"/>
	<g style="clip-path:url(#SVGID_00000100363740312106859660000017206308265267632512_);">
		<polygon class="st3" points="1477.3,127.3 1497.9,150.2 1505.2,150.2 1519.8,134.6 1504.8,143.7 		"/>
		<polygon class="st3" points="1318.2,140.3 1328.1,151.7 1332.7,151.7 1350.7,135.7 1327,147.3 		"/>
		<polygon class="st3" points="1445.4,95.7 1462.9,104.8 1470.5,84.6 1458,100.5 		"/>
		<polygon class="st3" points="1505.2,150.2 1519.2,150.2 1519.2,146.3 1502.5,148.2 		"/>
		<polygon class="st3" points="1312.8,215.5 1292.3,238.4 1284.9,238.4 1270.4,222.8 1286.4,231.2 		"/>
		<polygon class="st3" points="1284.9,238.4 1271,238.4 1271,234.5 1287.7,236.4 		"/>
		<polygon class="st3" points="1460.4,103.5 1463.2,108 1466.6,105.7 1462,103.5 		"/>
		<polygon class="st3" points="1256.2,151 1236.7,161.2 1228.2,138.7 1242.2,156.4 		"/>
		<polygon class="st3" points="1239.5,159.7 1236.4,164.7 1232.5,162.2 1237.6,159.7 		"/>
		<polygon class="st3" points="1328.6,150.2 1331.4,154.3 1334.5,154.3 1332.7,151.7 		"/>
		<polygon class="st3" points="1370.6,130.4 1401.1,126.6 1395.5,130.4 1380.3,144.7 1377.2,133.2 1368.7,133.2 		"/>
	</g>
	<g style="clip-path:url(#SVGID_00000100363740312106859660000017206308265267632512_);">
		<polygon class="st3" points="1216,213.9 1231.2,230.8 1236.7,230.8 1247.5,219.3 1236.4,226 		"/>
		<polygon class="st3" points="1097.9,223.5 1105.3,232 1108.7,232 1122,220.1 1104.4,228.7 		"/>
		<polygon class="st3" points="1192.3,190.4 1205.3,197.2 1210.9,182.2 1201.6,193.9 		"/>
		<polygon class="st3" points="1236.7,230.8 1247.1,230.8 1247.1,228 1234.7,229.4 		"/>
		<polygon class="st3" points="1093.9,279.3 1078.6,296.3 1073.2,296.3 1062.4,284.7 1074.3,291 		"/>
		<polygon class="st3" points="1073.2,296.3 1062.8,296.3 1062.8,293.4 1075.2,294.8 		"/>
		<polygon class="st3" points="1203.4,196.2 1205.5,199.5 1208.1,197.9 1204.6,196.2 		"/>
		<polygon class="st3" points="1051.9,231.5 1037.4,239 1031.1,222.3 1041.5,235.4 		"/>
		<polygon class="st3" points="1039.4,237.9 1037.1,241.6 1034.3,239.8 1038.1,237.9 		"/>
		<polygon class="st3" points="1105.6,230.8 1107.7,233.9 1110,233.9 1108.7,232 		"/>
		<polygon class="st3" points="1136.8,216.1 1159.4,213.3 1155.3,216.1 1143.9,226.8 1141.6,218.2 1135.4,218.2 		"/>
	</g>
	<g style="clip-path:url(#SVGID_00000100363740312106859660000017206308265267632512_);">
		<polygon class="st3" points="357.4,159.9 365.9,189.5 372.6,192.7 392.4,185 375,186.7 		"/>
		<polygon class="st3" points="208.6,102.3 212.5,116.9 216.6,118.9 239.8,112.3 213.4,112.4 		"/>
		<polygon class="st3" points="342.4,117.6 354.2,133.4 369.9,118.5 351.7,127.3 		"/>
		<polygon class="st3" points="372.6,192.7 385.1,198.8 386.8,195.3 370.9,189.7 		"/>
		<polygon class="st3" points="170.9,167.6 142.5,179.2 135.8,176 129.5,155.7 140.3,170.3 		"/>
		<polygon class="st3" points="135.8,176 123.3,170 125,166.5 139.2,175.5 		"/>
		<polygon class="st3" points="352.5,131.1 353.1,136.4 357.2,135.9 354,131.8 		"/>
		<polygon class="st3" points="148.1,84.9 126.1,85.6 128.2,61.6 133.1,83.6 		"/>
		<polygon class="st3" points="129.2,85.5 124.2,88.6 121.8,84.7 127.5,84.7 		"/>
		<polygon class="st3" points="213.5,115.7 214.3,120.6 217.1,122 216.6,118.9 		"/>
		<polygon class="st3" points="260,116.2 289.1,126.1 282.4,127.1 262.5,133.3 264.7,121.6 257.1,117.9 		"/>
	</g>
	<g style="clip-path:url(#SVGID_00000100363740312106859660000017206308265267632512_);">
		<path class="st4" d="M1080.3,442.7c-34.7,4.8-75.4-23.7-108.3-13.2c-12.6,4-19.9,16.7-33.3,19.1c-39.8,5.7-85.3-89.5-111.9-7.5
			c-1.4-3.3-10.1-15.5-21.4-28.4c-17.7-20.2-35-26-46.7-55.6c-38.1,15.3-45.2-50.4-58.6-69.7c-10.7-15.4-10.9-12.7-30.1-17.9
			c-33.8-9.1-32.2-36.5-56.5-59c-10-9.2-23.2-8.6-32.9-16.9c-18-15.3-12.4-47.9-34.3-62.3c-46.7-30.7-70.2,31.8-93.7,64.6
			c-11.3,15.8-24.1,33.3-39.1,46.4c-7.1,6.2-20.7,10.5-26.6,16.9c-7.6,8.3-8.3,34.3-17.2,39.5c-16.6,9.7-30.5-21.5-51.4-14.4
			c-12.9,4.4-20.6,26.1-37.9,32.2c15.7,29.2-374.4,353.7-387.6,358.6c-165.2,45.4,14.3,141.7,14.3,141.7s186-8.7,171.1,207.8
			c66.4,92.4,595.5-9.1,695.8-18.3c96.1-8.8,407.2,16.7,464.3-10.2c57.1-26.9,130.3-37.3,207.5-68.6
			C1523,896.4,1080.3,442.7,1080.3,442.7z"/>
		<g>
			<path class="st5" d="M689.7,518.6c-9.5-4.6-40.9-2.9-33.3-33c9.7-15.1,19.1-15,26.9-14.9c-5.5-7.2-13.2-12.1-8-21.1
				c-22.3,0.9-44.1,5.9-66.1,7.3c-4.7-21.4,4.9-31.5,9.1-49.5c2.7-11.6-4.1-20.4,3.7-28c7.3-7.1,24.4,1.5,33.5-3
				c-10.6-24.4-53.9-5.1-58.6-53.2c-1.9-16.2-0.9-43.5-8.4-56.7c-6.4-11.2-13.9-16.8-20.1-29.5c-3.8-7.8-6.8-19-15.8-19.9
				c-6-0.6-9.7,9-14.5,9.2c-20.1-2.2-1.1-48-16.2-61.1c-1,30.8-16.2,64.8-10.3,92.7c18.2,3.5,49.6-2.1,50.4,36.3
				c2.9,14.5,14.7,34,11.4,48.6c-2,8.7-11,13.3-10.6,21.8c0.5,10.5,13.1,31.3,16,42.1c20.1,45.4-57.4,54.8-68.7,99.6
				c3.9,4.3,8.4,13.4,10.1,19.9c3.2,11.8,1,10.5-0.4,21.3c-1.6,12.5-1.7,18.1,1,31.1c4.9,23,6.5,58.4,19.6,76.4
				c-0.6-8.2,4.8-19,4.9-29.1c0.1-16.2-10.4-26.9-11.6-41.7c-0.9-11.3,4.7-15.8,5.9-25.7c1.4-11.8-3-21-5.1-33.2
				c-3.3-20.3,11.9-43.3,29.9-37.2c13.8,4.7,25.1,26.9,39.1,32.1c28.8-31,94.3,21.3,116.4,35.9C717.1,526.5,708.9,527.9,689.7,518.6
				z"/>
			<path class="st5" d="M521.1,151.6c-1.5,1.9-0.6,2.9-0.9,5.3c-3.5,1-1.4,3.8,1.5,8.3C521.9,160.6,521.7,156.1,521.1,151.6z"/>
			<path class="st5" d="M925.4,708.6c-3.1-20.9-5.9-21.3-23.7-26.9c-25.1-4.4-22-38.3-40.7-43.9c-8.5-1.7-17.5,6.5-26.4,0.6
				c-10.8-7.2-15.3-33.1-21.3-45.7c-4.9-10.3-13.4-18.5-18.8-28.2c-4.1-4.3-8.3-8.1-2,9.1c15.7,17.5,30.4,87.2,51.6,99.1
				c14.9,6.5,19.6-1.8,26.2,20.2c20.3,64.1,1.6,126.2,63.9,119c-30.5-25.9-31.7-19.8-36.5-75.2c19,0.1,29.4,25.7,46.3,30.5
				C938.4,746.4,928.7,730.4,925.4,708.6z"/>
			<path class="st5" d="M1218.2,646.8c-10.6-16.3-13.2-15-30.9-8.8c-23.6,11.8-33.6-19.9-52.2-13.1c-8.1,3.8-12.9,16.6-22.9,16.9
				c-12.2,0.4-25.9-19.5-35.8-26.8c-8.1-6-18.7-7.9-27.1-13c-5.2-1.3-10.3-1.9,1.7,9.2c20.4,5.5,59.5,57.5,82.4,54.7
				c15.5-3.5,14.8-12.1,30.5,1.4c45.6,39.3,68.1,87.7,100.8,64.5c-36.4-3.7-35.2,2.4-60.2-43.2c16.7-11.7,35.4,4.2,52.1-2.1
				C1243.8,671.8,1229.2,663.8,1218.2,646.8z"/>
			<path class="st5" d="M435,557.4c-8.7-14.7-2.9-33.8-10.7-46.8c-12.8-21.3-62.6-25.7-65.3-54.5c-1.1-11.6,9.2-16.2,4.7-27.2
				c-9-13.8-10.4-12.8-8.5-33.8c2.7-17.5,23.2-18.5,30.7-33.3c12.9-25.1,13.9-55.5,23.3-82c-9.9,16.2-13.3,35.9-24.5,51.3
				c-4.3,6-9,11.6-12.5,18.3c-3.1,5.8-3.3,16.5-6.8,21.1c-7,9.4-23,1.3-29.4,11.8c0.1,36.7-11.2,20.8-26.6,14.7
				c-6,29.9-40,23-53.5,42.3c-4.3,6.2-4.7,15-9.4,20.7c-9.6,11.8-29.1,13.2-41.6,20.8c9.7,2.8,20.9-2.3,30.6-5.7
				c10.5-3.6,22.7-8,34.3-8.2c6.6-0.1,11.1,1.6,17.1-0.4c12.3-4.1,16.3-18.8,28.2-4.3c5.8,7.1,11.3,18.9,16,27.1
				c6.4,11,6.9,11.3,1,19.5c-10.5,14.6-24.4,26.5-34.7,41.6c-7.3,10.8-5.9,19.1-2.2,33.2c4.1,15.4,6.2,30.9,9.3,46.2
				c-5.8-43.6,8.9-85.5,36.7-100.4c22.9-15.4,32.9-29.4,60-8.4c7.4,5.8,8.3,13.8,11.9,22.8c11.1,43.4,28.5,26.2,52.2,44
				C458.2,576.5,442.6,570.3,435,557.4z"/>
			<path class="st5" d="M1008.7,481.7c-11.2-2.5-21.8-13.7-32.6-16.4c-12.4-3.1-9.1,0.9-16.9,8.4c-14.5,13.8-37.8,11.3-53,24.7
				c7.3,1.4,14.8,4.9,21.9,6.8c-11.1,17-25.9,28.2-34.6,48.5c19.2-4.4,32.7-22.5,53.2-25.8c14.6-2.3,44.8,8.1,53.9-3.4
				c-16.6-9.5-31.1-15.8-47.3-19.2c5.9-5.9,18.5-19.1,27.3-20.8c11.4-2.2,18,8.6,28.7,12.8c19.2,7.5,32.9-22.4,31.1-32.1
				C1030.6,469.9,1025.5,485.5,1008.7,481.7z"/>
		</g>
	</g>
	<path style="opacity:0.36;clip-path:url(#SVGID_00000100363740312106859660000017206308265267632512_);fill:#C9C7D4;" d="
		M916.7,445.4c-37.3-31.4-285.2,13.9-179.9-13.7c105.3-27.6,194.4-12.3,214.6-12.3s-32.6-44.1-189-35.4
		c-156.5,8.7-145.7,20.1-247.2,41.8c-103.3,22.1-170.1,10.2-221.7-3.1c-51.6-13.3,29.1-15,128.2-25.4
		c99.1-10.4-37.9-16.2-237.6-41.1C22.6,336.1,76,395.1,62.8,400.8v65.6c3,1,6,2.1,9,3.2c61.6,23.5,34.8,26.3-9,24.5v5.7
		c27.4-0.8,59-3.2,93.3-8.2c162-23.5,251.4,58.3,181.7,10.3c-69.6-48-253.9,1.5-181.8-40.1c72.1-41.6,209.7-0.8,325.9-6.7
		c116.3-5.8,184.3-27.8,98.3,14.4c-46.9,23-83.3,27.1-105,26c46.1,14.2,69-16.8,230.7-46c166.5-30.1,185.9,28.9,245.4,33.3
		C1010.9,487.3,954,476.8,916.7,445.4z"/>
	<g style="clip-path:url(#SVGID_00000100363740312106859660000017206308265267632512_);">
		<path class="st7" d="M1923.6,461.8c-52.8-28.3-25.5-36.7-44.9-80.4c-9,0.8-20.4-8.8-29.7-9.4c-11.2-0.8-27.2,4.6-37,8.2
			c-24.4,14.3-21.8,10.2-46.4-0.2c-10.2,11.9-10.6,30.4-23,41.4c-23.1,13.1-21.1,7.6-35.5,34.9c-16.5,38.6-41.5,6.1-53.1,27
			c-2.3,5,1.7,11.6-3,15.7c-3.9,3.3-10.7,2.8-13.1,8.2c-5.3,11.9-11.2,23.7-17.5,35.5c-7.4,16.5-16.7,36.4-37.7,29.8
			c-16.1-2.9-16.7,15-36.8,8.1c-7.2-1.6-13.9-2.3-21-3.4c-17.8-2.9-34.3,17.6-41.3,28.2c-6,9.2-4.5,22-10.7,30.7
			c-7.5,10.8-21,14.7-31,23c-4.9,4-5.4,12-13.2,13.1c-12.5-0.3-15.8-8.4-28.1,2.5c-7.6,3.2-19.9,1.2-28.5,3.4
			c-37.2,5.5-29,30.3-58.9,33.7c-30.4,3.1-66-15.2-94.8-8.5c-11,2.6-17.4,10.7-29.1,12.2c-34.9,3.6-74.6-57.3-98-4.8
			c-1.2-2.1-8.8-9.9-18.8-18.2c-15.5-13-30.6-16.6-40.9-35.6c-33.3,9.8-39.6-32.3-51.3-44.6c-9.4-9.9-9.5-8.2-26.3-11.5
			c-29.6-5.8-28.2-23.4-49.5-37.8c-8.7-5.9-20.4-5.5-28.8-10.8c-15.7-9.8-10.8-30.6-30-39.9c-40.8-19.7-61.5,20.4-82,41.4
			c-9.9,10.1-21.1,21.4-34.2,29.7c-6.2,4-18.1,6.7-23.3,10.9c-6.7,5.3-7.3,22-15.1,25.3c-14.5,6.2-26.7-13.8-45-9.2
			c-11.3,2.8-18,16.7-33.2,20.6c13.7,18.7-282.2,123.8-293.8,126.9c-144.6,29-33,193.4-33,193.4s110.7,133.9,149.8,133.1
			c50.3-1,296-5.4,346.2-4.9c87.6,1,175.1-0.9,262.9-6.7c84.1-5.6,340.7-94.9,340.7-94.9s457.9-8.9,490.8,2.7
			c95.6,33.8,61.8-517.5,61.8-517.5C1934.4,464.3,1931.6,465.7,1923.6,461.8z"/>
		<g>
			<path class="st8" d="M971.4,760.2c-8.3-2.9-35.8-1.9-29.2-21.1c8.5-9.6,16.8-9.6,23.6-9.6c-4.8-4.6-11.6-7.8-7-13.5
				c-19.6,0.6-38.6,3.8-57.9,4.7c-4.1-13.7,4.3-20.2,7.9-31.7c2.3-7.4-3.6-13,3.2-17.9c6.4-4.5,21.4,1,29.3-1.9
				c-9.3-15.6-47.2-3.3-51.3-34.1c-1.7-10.4-0.7-27.9-7.3-36.3c-5.6-7.2-12.2-10.7-17.6-18.9c-3.3-5-6-12.2-13.8-12.8
				c-5.2-0.4-8.5,5.7-12.7,5.9c-17.6-1.4-1-30.7-14.2-39.1c-0.9,19.7-14.2,41.5-9,59.3c16,2.3,43.4-1.4,44.1,23.3
				c2.5,9.3,12.8,21.8,9.9,31.1c-1.7,5.5-9.7,8.5-9.3,14c0.4,6.7,11.4,20.1,14,27c17.6,29.1-50.2,35.1-60.1,63.8
				c3.4,2.8,7.3,8.6,8.9,12.7c2.8,7.5,0.9,6.7-0.3,13.6c-1.4,8-1.5,11.6,0.9,19.9c4.3,14.7,5.7,37.4,17.2,48.9
				c-0.6-5.2,4.2-12.2,4.3-18.6c0.1-10.4-9.1-17.2-10.1-26.7c-0.8-7.2,4.1-10.1,5.2-16.5c1.2-7.6-2.7-13.5-4.4-21.3
				c-2.9-13,10.4-27.8,26.2-23.8c12,3,22,17.2,34.2,20.6c25.2-19.8,82.6,13.6,101.9,23C995.4,765.3,988.2,766.2,971.4,760.2z"/>
			<path class="st8" d="M823.8,525.2c-1.3,1.2-0.5,1.8-0.8,3.4c-3.1,0.6-1.2,2.5,1.3,5.3C824.5,530.9,824.4,528,823.8,525.2z"/>
			<path class="st8" d="M1113.7,892.5c-2.7-13.4-5.1-13.7-20.7-17.2c-22-2.8-19.2-24.5-35.7-28.1c-7.5-1.1-15.4,4.2-23.1,0.4
				c-9.5-4.6-13.4-21.2-18.6-29.3c-4.3-6.6-11.8-11.9-16.5-18.1c-3.6-2.8-7.3-5.2-1.8,5.8c13.8,11.2,26.6,55.9,45.1,63.5
				c13.1,4.2,17.1-1.2,22.9,12.9c17.8,41.1,1.4,80.8,56,76.2c-26.7-16.6-27.7-12.7-31.9-48.2c16.6,0.1,25.7,16.5,40.6,19.6
				C1125.1,916.7,1116.6,906.4,1113.7,892.5z"/>
			<path class="st8" d="M1852.6,370.9l3.8,12c-0.1,0-0.2,0.1-0.3,0.1c1.2,0.5,2.4,1,3.6,1.3C1857.8,379.7,1855.4,375.3,1852.6,370.9
				z"/>
			<path class="st8" d="M1837,389.5c3.5-3.7,15.7-5,19.1-6.5c-46.7-27.4-30.5,29-81.5,2.7c-4.2,8.5,3.4,15.2,3.6,24.2
				c0.4,13.8-20.2,11.2-30.3,16.7c-7.9,4.2-11.1,11.7-16.1,17.9c-6.4,8.1-9.8,12.6-13,22.4c-8,23.5-58.7-4-41.6,36.1
				c-9.3,3.4-15-4.8-19.8,4.7c-3.9,7.8,2.9,11.5,2.7,19.4c-0.2,7.4-17.9,20-23.3,25.7c-15.2,16.7-14.4,21.1-37.1,22.2
				c-8.6,1.8-3.7,3.5-9.3,8.1c-5.3,4.4-23.5,5-30.9,6.5c11.9,0.4,27.1,3.9,37.3,11.3c6.9,4.9,31,16.8,26.1,26.4
				c-1.8,3.6-11,6.9-14.5,10.7c-3.2,3.5-16.3,13.2-16.6,17.4c-0.4,5,6.8,16.6,8.2,22.9c2.9,12.9,1.9,19.9-0.9,32.2
				c15.6-12.8,27.8-30,38.8-47.2c6.7-8.3,21.6-4.6,25.9-14.1c2.6-5.7-3-12.6-1.6-17.8c2.2-7.9,15.6-7.9,23.6-8.8
				c18.2-2,35.6-3.2,53-7.1c8.8-1.9,19.7-2.7,25.7-8.6c9.2-9.1,7-25.8,16.7-34.2c7.4-6.4,26.4,1.3,31.5-4.5
				c6.3-7.1-14-35.2-17.4-44.8c-3.2-9.2,0.2-8.7,4.2-15.9c4.7-8.3,3.8-18.9,9.4-26.9c5.6-8,15.9-11.1,22-18.5
				c9.1-11,5.7-28.9,5.2-43.1C1835.7,410.5,1831.1,395.6,1837,389.5z"/>
			<path class="st8" d="M1529.4,831.6c-6.5-12.6,2.2-25.5-3.7-36.7c-9.6-18.3-59-31.9-57.4-53.7c0.7-8.7,11.7-10,8.9-19
				c-7-12-8.6-11.6-3.4-26.7c5.4-12.3,26.1-8.8,36-18.1c16.8-15.8,22.4-38,36-55.5c-12.4,9.8-18.8,23.6-32.5,32.7
				c-5.3,3.5-10.8,6.7-15.4,10.8c-4,3.6-5.9,11.4-10,14.1c-8.4,5.4-23.3-3.8-31.3,2.6c-5.5,27-14.4,12.9-29,5.2
				c-10.6,20.7-43.8,8.6-60.2,20c-5.3,3.7-7,10-12.6,13.3c-11.4,6.7-31.3,3.7-45,6.7c9.4,4.1,21.3,2.6,31.6,2.2
				c11.1-0.5,24-1.2,35.7,1.1c6.7,1.3,11,3.5,17.3,3.2c13-0.4,19.3-10.4,29,2.7c4.8,6.4,8.5,16.3,12,23.3c4.7,9.4,5.3,9.7-2,14.5
				c-12.8,8.6-28.6,14.4-41.2,23.4c-9,6.4-8.9,12.8-7.2,24c1.8,12.2,1.5,24,2.3,35.9c0.8-33.3,22-61,52.2-66.2
				c25.4-6.6,37.6-14.8,61.6,6.3c6.5,5.8,6.2,11.9,8.5,19.2c4.5,34.2,24.6,25.2,45.8,43.3C1549.8,850.5,1535.1,842.7,1529.4,831.6z"
				/>
			<path class="st8" d="M1449,664.2c-1.2,0.4-1.4,1.2-1.6,2c0.5-0.6,1-1.2,1.6-1.6C1449,664.5,1449,664.3,1449,664.2z"/>
			<path class="st8" d="M1198,744.1c-9.8-1.6-19.1-8.7-28.6-10.5c-10.9-2-7.9,0.6-14.8,5.4c-12.7,8.9-33.1,7.2-46.4,15.8
				c6.4,0.9,13,3.1,19.2,4.4c-9.7,10.9-22.7,18.1-30.3,31.1c16.8-2.8,28.6-14.4,46.6-16.5c12.8-1.5,39.2,5.2,47.2-2.2
				c-14.6-6.1-27.2-10.1-41.4-12.3c5.2-3.8,16.2-12.2,23.9-13.3c10-1.4,15.7,5.5,25.1,8.2c16.8,4.8,28.8-14.3,27.2-20.6
				C1217.2,736.6,1212.7,746.6,1198,744.1z"/>
			<path class="st8" d="M1784.2,715.4c1.1-1.3,1.8-2.4,3.4-3.3c-2.2,0.6-4.4,1.2-6.5,1.9C1783.4,714.3,1784.6,714.8,1784.2,715.4z"
				/>
			<path class="st8" d="M1728.6,713.6c1.5-6.4,5-12.1,7-18.4c-11.6,1.4-19.6,8.5-30,11.5c1.8-19.4,26.1-45,42-56.3
				c-29.3-0.6-64,36.8-84.4,50.9c-36.2,24.9-79.4,51.6-107,83.6c13.1,5,37.2-7.7,49.6-11c18.9-5.1,41.1-19.7,62.2-19.4
				c3,17.9-11.7,34.2-4.9,51.3c45.5-24.3,65.9-75,118-91.8C1771,712.4,1739.6,713.2,1728.6,713.6z"/>
		</g>
	</g>
	<g style="clip-path:url(#SVGID_00000100363740312106859660000017206308265267632512_);">
		<path class="st9" d="M-189.9,1285.4c26.9-7.6,411,11,420,8.7c370.1-89.7,745.1-161.1,1119-227c70-15.4,535.2,50.2,546-23.7
			c7.8-53.7-257.2-26.1-419.6-94.8c-10.8-4.6-17.6-8.6-24.3-9.2c-11.1-1.1-20,3.3-34.7,8.2c-29.2,9.4-65.2,14.9-95.6,12.7
			c-32.4-3.3-80-23.8-104.4,10.5c-57.9-3.2-109.4-34-163.1-49.8c-35.5-5.2-45-6.1-73.9-28.3c-5.7-3.8-16.2-4.6-21.8-9
			c-16.9-14-21.3-55-50.1-50.8c-20.3,3.4-37.8,20.8-58.5,21.4c-25.6,0.7-45.1-26.3-47.1-48.8c-22.6-0.4-46.1-2.1-68.4-4.6
			c-15.3,7.1-15.6,24-36.8,25.7c-16.4,1.4-33.9-3.4-50.5-2.3c-8.1,1-22.5,5.4-28.2,3.8c-26.9-4.3-46.1-76.1-70.2-63.5
			c-24.1-11.7-26.9-0.9-49-3c-19.2-11.1-46.6-1.3-68.2-2.4c-26.9-0.3-40.7-5.3-52.2-29.5c-21.6-42.4-31.8-89.8-48.7-134.3
			c-8.8-19.1-24.8-15.8-45.6-15.9c-48.3,0.7-30.8-54-76.4-46.8c-18.9,3.6-19.2,4.2-33.5-7.8c-13.3-7.6-23.2-4.6-29.9-20.2
			c-13-30.6-4.8-77.2-32.1-100.1c-44.5-8.4-87.9-26.1-131.6-38.9L-189.9,1285.4z"/>
		<path class="st10" d="M936.7,946.5c0.4-4.5-30.6-23.3-36.3-34.8c-4.3-8.7-4.8-18.1-2.6-27.6c-29.7-2.5-69.4,18.8-93.8,0.1
			c-12.3-9.5-19.1-21.2-33.1-29.7c-7.3-4.5-16.1-8.9-21.8-14.8c-13.8,5.3-25.7,6.7-40,7.9c17.6,0.7,53.8,13.9,65.1,25.2
			c30.6,30.6-42.9,12.6-56.5,13c4.3,4.8,17.4,6.5,24.9,10c17.9,8.2,32.6,21.2,51.2,27.9c23.1,8.3,49,13.8,72.8,20.7
			c-15.5-10.7-31.9-23.3-49.8-30.9c-6.7-2.9-14.4-3.7-19-8.4c16.7-1.1,30.9,5.6,48.3,3.8c10.5-1.1,23-5.8,32.6-2
			c10.9,4.3,11.7,17.4,19,23.7c12.4,10.8,35.2,10.4,47.3,22.2C942.4,950.9,940.2,948.7,936.7,946.5z"/>
		<path class="st10" d="M551.8,830.4c3-2.8-11.9-33.1-19.3-36.9c-15.5-8.1-53-6.4-71.9-3.9c-43.7,5.9-71.4-27.9-109.4-39.6
			c12.9,18.5,48.5,23.6,57.2,44.4c-17.2,3.3-37.6-8.2-54.9-9.9c-9.6-0.9-20.1-1.1-29.9-1.4c23,15.9,58,18.7,84.5,31.1
			c22.4,10.4,53.5,29.4,80.3,30.3c-12.9-10.4-42.3-22-47.9-36.9c18.1-8.3,42.5,0.5,61.5,1.1c22,0.7,22.5,3,28.6,19.1
			c9.3,24.4,56.3,31.9,83.2,35.3c-14.1-13.3-40.1-16.1-58.3-23.1c10.2-6.1,20.5-5.2,31.9-5.3C579.8,834.7,546.3,830.7,551.8,830.4z"
			/>
		<path class="st10" d="M48.1,509.2c13.3,10.2,12,26.8,22.9,38.3c-12.2-1.2-23.5-4.9-35.1-7.8c13.4,12.4,37.2,17.3,54.4,26.4
			c15.3,8.1,38.5,24.6,58.1,24.1c-11.5-15.5-29.5-30.7-34.5-49.4c8.6-1.8,24.1,11.7,31.7,15.8c13.7,7.5,26.3,15.6,38.9,24.3
			c11.3,7.9,41.2,22,40.4,36.9c-23.6,5.8-47.5-3.1-70-5.3c11.4,11.9,37.9,16.3,52.3,28.2c10.9,9,16.5,19.5,22,30.2
			c3.9,7.6,7.7,15.3,13.3,22.6c10,13,32.7,15.7,45.8,27c12.5,10.9,18.8,26.8,31,37.3c-14.7-28.9-30.9-55.8-53.9-79.7
			c-7.9-8.2-16-18-21.4-28.7c-4-8-6.6-16.5-6.5-25.2c7,0.4,13.9,3.8,20.3,8.8c15.7,12.2,29.1,33.9,37.9,45.4
			c11.4,14.8,14.5,11.8,32.3,7.2c-3.4-8-15.9-12.2-22.4-18.7c-4.4-4.4-8.6-10.9-10.5-11c3.6-8-3.8-22.3-5.7-29.5
			c-2.1-8.1-2.2-12.6-4.8-15.8c-2-2.4-5.3-4-12.1-5.7c-32.4-8.4-58.4-11.5-51.1-46.7c-28.4-9.2-58.5-8.8-84.6-24.5
			c-11.4-6.9-19-16-26.9-25.7c-6.5-7.9-20.2-18.6-22.2-28.8c-1.7-8.6,9.8-25.2,6-32.2c-4.4-7.8-29.1-12.4-38.1-16.5
			c12.5,19.5,2.1,46.8,10.9,66.9c-25.9-2.7-48.9-32.9-65.9-47.5c-2.6-2.3-5.4-4.4-8.2-6.4l5,33.5C13.7,488.2,32.4,497.1,48.1,509.2z
			"/>
		<path class="st10" d="M137.4,723.7c7.6,40.6,89.7,79.4,122.1,103.6c52.8,39.5,120.4,70,166.5,115.4c-50.7,12.4-96.9-36.5-148-28.2
			c1.4,10.1,3.7,20.1,1.7,30.5c-19.4,4.1-39-9.3-59.9-4.3c-1.7,10.3-0.7,20.7,1,30.6c-29,0.8-67.4-43.4-82.6-61
			c-18.4-21.4-30.2-47.9-48.3-68.4c27.5,3.4,78.9,40.6,106,30.3c-25.6-32.6-39.2-46.5-43.3-86.2c-2.1-20.1-13.3-35.4-16.7-54.1
			C140,731,140.7,729.3,137.4,723.7z"/>
	</g>
	<g style="clip-path:url(#SVGID_00000100363740312106859660000017206308265267632512_);">
		<path class="st11" d="M2066.6,1346.3c-23.3-7.9-361-9.1-368.7-11.5c-320.5-95.5-206.5,59.4-517.6-60.6
			c-49.4-19.1-665.5,7.3-755.1-40.6c-42-22.5,193.6-170.8,199.6-171.1c9.7-0.5,105-69.7,131.7-70.3c28.6-1.4,71.3-17.3,91.1,13.9
			c50.9-0.1,97.5-24.8,145.3-36.3c31.4-3,39.8-3.3,66.1-21.5c5.1-3.1,14.4-3.3,19.5-6.9c15.5-11.5,21.2-47.3,46.3-42.2
			c17.6,3.9,32.2,19.9,50.3,21.4c22.4,1.8,40.8-21,43.5-40.6c19.9,0.7,40.5,0.3,60.2-0.9c13.1,6.9,12.6,21.8,31.1,24.2
			c14.3,2,29.9-1.4,44.4,0.3c7.1,1.3,19.5,5.8,24.6,4.6c23.8-2.6,43.9-64.6,64.4-52.5c21.7-9.1,23.7,0.5,43.1-0.4
			c17.3-8.8,40.9,1,59.9,1c23.6,1,36-2.8,47.1-23.5c20.9-36.2,32-77.3,48.8-115.5c8.6-16.4,22.5-12.7,40.7-11.9
			c42.3,2.8,29.5-45.9,69.1-37.6c16.4,4,16.6,4.5,29.7-5.3c12-6.1,20.6-3,27.2-16.4c12.8-26.3,7.8-67.5,32.7-86.4
			c39.4-5.3,78.3-18.9,117.2-28.1L2066.6,1346.3z"/>
		<path class="st10" d="M1093.9,997.7c-0.2-3.9,27.9-19,33.4-28.9c4.1-7.4,5-15.7,3.5-24.1c26.2-0.8,60,19.6,82.3,4.3
			c11.3-7.7,17.7-17.7,30.4-24.6c6.6-3.6,14.5-7,19.8-12c11.9,5.3,22.3,7.1,34.7,8.8c-15.5-0.2-47.8,9.7-58.2,19.1
			c-28.3,25.4,37,13,49,14c-4,4-15.6,4.9-22.3,7.6c-16.1,6.3-29.5,17.1-46.2,22.2c-20.6,6.2-43.6,9.9-64.8,14.8
			c14.1-8.7,29-19,45.1-24.9c6-2.2,12.8-2.6,17.1-6.5c-14.6-1.7-27.4,3.5-42.5,1.1c-9.1-1.4-19.9-6.1-28.5-3.2
			c-9.7,3.3-11,14.7-17.7,19.9c-11.4,8.9-31.3,7.5-42.5,17.3C1088.7,1001.2,1090.8,999.4,1093.9,997.7z"/>
		<path class="st10" d="M1436.8,913.4c-2.5-2.6,12-28.4,18.6-31.5c14-6.4,46.8-3.2,63.2-0.1c38.1,7.1,63.9-21.3,97.8-29.7
			c-12.1,15.7-43.6,18.5-52.2,36.3c14.9,3.7,33.4-5.5,48.6-6.2c8.5-0.4,17.7,0,26.3,0.2c-20.9,12.9-51.7,13.7-75.6,23.4
			c-20.1,8.1-48.3,23.3-71.8,22.9c11.8-8.5,38.1-17.4,43.7-30.2c-15.5-8.1-37.3-1.5-54-1.9c-19.4-0.4-19.9,1.6-26,15.5
			c-9.2,20.9-50.8,25.4-74.6,27.1c12.9-11,35.9-12.3,52.2-17.6c-8.7-5.8-17.7-5.5-27.8-6.1C1412.1,915.9,1441.6,913.9,1436.8,913.4z
			"/>
		<path class="st10" d="M1893.2,654.7c-12.1,8.4-11.7,22.9-21.9,32.5c10.8-0.5,20.8-3.2,31.2-5.2c-12.3,10.3-33.4,13.5-48.9,20.7
			c-13.8,6.4-34.9,19.8-52,18.5c10.8-13,27.3-25.6,32.5-41.8c-7.4-2-21.7,9.1-28.5,12.4c-12.4,5.9-23.7,12.5-35.2,19.5
			c-10.3,6.4-37.1,17.4-37.1,30.5c20.5,6.1,41.8-0.5,61.6-1.5c-10.5,9.9-34,12.6-47.1,22.3c-10,7.4-15.4,16.4-20.7,25.5
			c-3.8,6.5-7.5,13.1-12.7,19.2c-9.3,10.9-29.4,12.3-41.4,21.6c-11.5,9-17.7,22.6-28.9,31.3c14.2-24.6,29.6-47.6,50.9-67.4
			c7.3-6.8,14.9-15.1,20.1-24.2c3.9-6.8,6.5-14.2,6.8-21.8c-6.2,0-12.3,2.7-18.2,6.8c-14.3,9.9-27.1,28.4-35.3,38.1
			c-10.6,12.4-13.3,9.7-28.7,4.8c3.3-6.9,14.5-9.9,20.5-15.4c4.1-3.7,8-9.2,9.7-9.2c-2.8-7.2,4.4-19.4,6.3-25.6
			c2.2-7,2.5-11,4.9-13.6c1.8-2,4.8-3.2,10.8-4.5c28.8-5.9,51.7-7.4,46.9-38.6c25.4-6.8,51.7-5.1,75.3-17.7
			c10.3-5.5,17.4-13.2,24.8-21.3c6-6.7,18.5-15.4,20.7-24.2c1.9-7.5-7.5-22.6-3.8-28.5c4.2-6.7,26.1-9.5,34.2-12.8
			c-11.8,16.5-3.9,40.9-12.6,58.2c22.9-1.2,44.4-26.7,59.9-38.6c2.4-1.9,4.9-3.6,7.5-5.2l-5.9,29.1
			C1924.3,637.8,1907.5,644.8,1893.2,654.7z"/>
		<path class="st10" d="M1805.1,838.7c-8.5,35.3-82.3,65.5-111.8,85.3c-48.1,32.3-108.8,55.9-151.3,93.7
			c43.9,13.2,86.6-27.6,131.1-18c-1.7,8.8-4.2,17.5-2.9,26.6c16.9,4.5,34.6-6.4,52.7-1.1c1,9.1-0.4,18.2-2.3,26.7
			c25.4,2,61.1-35,75.2-49.8c17.1-18,28.6-40.6,45.5-57.8c-24.3,1.7-71,32-94.4,21.7c23.9-27.4,36.5-39,41.9-73.6
			c2.7-17.5,13.3-30.4,17.1-46.7C1802.5,845,1802,843.5,1805.1,838.7z"/>
	</g>
	<g style="clip-path:url(#SVGID_00000100363740312106859660000017206308265267632512_);">
		<polygon id="XMLID_221_" class="st12" points="744,907.6 731.4,928.5 736.7,927.6 724.5,944.6 729.4,942.7 727.5,948 733.3,944.6 
			717.2,963.6 725,962.2 721.6,967.5 729.9,963.1 709.9,983.6 720.6,981.2 716.3,988 726.5,984.1 699.7,1017.7 712.4,1011.9 
			708,1021.1 720.2,1013.8 702.1,1043.1 726.5,1030.9 741.1,1040.6 747,1033.8 758.7,1040.6 767.9,1033.8 780.1,1040.1 
			780.6,1030.4 798.6,1035.8 769.9,1005.1 783,1010.9 760.6,987.5 770.4,990.9 762.1,980.2 775.7,987.5 757.7,962.6 766,966.5 
			761.1,957.8 771.3,964.1 751.8,939.7 760.1,939.7 751.4,930.5 759.6,932.9 		"/>
		<path id="XMLID_218_" class="st12" d="M846.4,888.6L835.3,907c-0.4,0.6,0.1,1.3,0.8,1.2l1.7-0.3c0.7-0.1,1.2,0.7,0.8,1.2
			l-9.5,13.3c-0.5,0.6,0.2,1.5,0.9,1.2l0.7-0.3c0.6-0.3,1.3,0.4,1,1l-0.6,1.7c-0.3,0.7,0.5,1.3,1.1,1l0,0c0.8-0.4,1.6,0.5,1,1.2
			l-11.7,13.8c-0.5,0.6,0,1.4,0.7,1.3l3.8-0.7c0.7-0.1,1.2,0.6,0.8,1.2l-0.8,1.3c-0.4,0.7,0.3,1.5,1,1.1l1.2-0.6
			c0.8-0.4,1.6,0.6,0.9,1.2l-14.6,15c-0.5,0.6,0,1.5,0.7,1.3l6.2-1.4c0.7-0.2,1.2,0.6,0.8,1.2l-2,3.2c-0.4,0.6,0.2,1.4,0.9,1.2
			l5.3-2c0.8-0.3,1.4,0.6,0.9,1.2l-22.9,28.8c-0.5,0.7,0.2,1.6,0.9,1.2l7.7-3.5c0.7-0.3,1.4,0.4,1,1.1l-2.3,4.9
			c-0.3,0.7,0.4,1.4,1.1,1l7.2-4.3c0.7-0.4,1.5,0.4,1.1,1.1l-14.9,24.1c-0.4,0.7,0.3,1.5,1,1.1l21.5-10.7c0.3-0.1,0.6-0.1,0.8,0
			l13.7,9.1c0.3,0.2,0.8,0.2,1-0.1l5-5.8c0.2-0.3,0.7-0.4,1-0.2l10.7,6.2c0.3,0.2,0.6,0.1,0.9,0l8.4-6.2c0.2-0.2,0.6-0.2,0.8-0.1
			l10.7,5.5c0.5,0.3,1.1-0.1,1.2-0.7l0.4-7.5c0-0.5,0.5-0.9,1-0.7l14.3,4.2c0.8,0.2,1.4-0.7,0.8-1.3l-24.1-25.7
			c-0.6-0.6,0.1-1.6,0.9-1.3l5.9,2.6c0.8,0.4,1.5-0.6,0.9-1.3L866,969.8c-0.6-0.6,0-1.6,0.8-1.3l4.1,1.4c0.7,0.3,1.4-0.6,0.9-1.2
			l-4.4-5.7c-0.5-0.7,0.2-1.6,1-1.2l7.4,3.9c0.7,0.4,1.5-0.5,1-1.2l-14.2-19.6c-0.5-0.7,0.2-1.5,1-1.2l3.3,1.6
			c0.7,0.3,1.4-0.4,1-1.1l-2.2-4c-0.4-0.7,0.4-1.5,1.1-1.1l3.8,2.3c0.8,0.5,1.6-0.5,1-1.2l-15.6-19.5c-0.4-0.5,0-1.3,0.6-1.3h4.8
			c0.7,0,1-0.8,0.6-1.3l-5.5-5.8c-0.6-0.6,0-1.5,0.8-1.3l3.5,1c0.7,0.2,1.3-0.6,0.9-1.2l-13.8-22.5
			C847.5,888.1,846.7,888.1,846.4,888.6z"/>
		<polygon id="XMLID_206_" class="st12" points="802.2,914.7 789.5,935.6 794.9,934.7 782.7,951.7 787.6,949.8 785.6,955.1 
			791.5,951.7 775.4,970.7 783.2,969.3 779.8,974.6 788,970.2 768.1,990.7 778.8,988.3 774.4,995.1 784.6,991.2 757.8,1024.8 
			770.5,1019 766.1,1028.2 778.3,1020.9 760.3,1050.2 784.6,1038 799.3,1047.7 805.1,1040.9 816.8,1047.7 826.1,1040.9 
			838.3,1047.3 838.7,1037.5 856.8,1042.9 828,1012.2 841.2,1018 818.8,994.6 828.5,998 820.2,987.3 833.9,994.6 815.8,969.7 
			824.1,973.6 819.2,964.9 829.5,971.2 810,946.8 818.3,946.8 809.5,937.6 817.8,940 		"/>
	</g>
	<g style="clip-path:url(#SVGID_00000100363740312106859660000017206308265267632512_);">
		<polygon id="XMLID_00000115512021626369308900000016393121112636016047_" class="st12" points="1777.3,627.2 1744.7,697.8 
			1758.5,694.5 1727.2,751.9 1739.7,745.3 1734.7,763.4 1749.7,751.9 1708.4,815.9 1728.4,811 1719.7,829 1741,814.2 1689.6,883.1 
			1717.2,874.9 1705.9,897.9 1732.2,884.8 1663.3,998 1695.9,978.3 1684.6,1009.5 1715.9,984.9 1669.6,1083.3 1732.2,1042.3 
			1769.8,1075.1 1784.8,1052.1 1814.9,1075.1 1838.6,1052.1 1870,1073.5 1871.2,1040.6 1917.6,1058.7 1843.7,955.3 1877.5,975 
			1819.9,896.3 1844.9,907.8 1823.6,871.7 1858.7,896.3 1812.3,812.6 1833.6,825.7 1821.1,796.2 1847.4,817.5 1797.3,735.5 
			1818.6,735.5 1796.1,704.3 1817.4,712.5 		"/>
		<polygon id="XMLID_00000006707544972742874210000015764699921214412938_" class="st12" points="1926.6,651.1 1894.1,721.7 
			1907.9,718.4 1876.6,775.8 1889.1,769.2 1884.1,787.3 1899.1,775.8 1857.8,839.8 1877.8,834.9 1869,852.9 1890.3,838.2 
			1839,907.1 1866.5,898.9 1855.3,921.8 1881.6,908.7 1812.7,1021.9 1845.2,1002.2 1834,1033.4 1865.3,1008.8 1818.9,1107.2 
			1881.6,1066.2 1919.1,1099 1934.2,1076 1964.2,1099 1988,1076 2019.3,1097.4 2020.6,1064.5 2066.9,1082.6 1993,979.2 
			2026.8,998.9 1969.2,920.2 1994.3,931.7 1973,895.6 2008.1,920.2 1961.7,836.5 1983,849.6 1970.5,820.1 1996.8,841.4 
			1946.7,759.4 1968,759.4 1945.4,728.2 1966.7,736.4 		"/>
	</g>
	<g style="clip-path:url(#SVGID_00000100363740312106859660000017206308265267632512_);">
		<path id="XMLID_00000058553099330250689280000001284885575373527743_" class="st12" d="M89.9,660.8L67,710.5
			c-0.7,1.6,0.3,3.5,1.7,3.2l3.6-0.8c1.4-0.3,2.5,1.8,1.6,3.3l-19.6,35.9c-0.9,1.7,0.4,4,1.9,3.2l1.5-0.8c1.3-0.7,2.6,1,2.1,2.7
			l-1.2,4.5c-0.5,1.9,1,3.6,2.4,2.6l0,0c1.6-1.2,3.2,1.4,2.1,3.2l-24.1,37.4c-1,1.5,0,3.8,1.5,3.5l7.9-1.9c1.4-0.3,2.4,1.7,1.7,3.2
			l-1.7,3.5c-0.9,1.8,0.7,4.1,2.1,3l2.5-1.7c1.6-1.1,3.2,1.6,1.9,3.4l-30.1,40.4c-1.1,1.5-0.1,4,1.5,3.6l12.9-3.8
			c1.4-0.4,2.5,1.6,1.7,3.2l-4.2,8.6c-0.9,1.7,0.5,3.9,2,3.1l10.9-5.5c1.5-0.8,2.9,1.6,1.9,3.3L4,948.7c-1.1,1.8,0.4,4.2,2,3.3
			l15.8-9.6c1.4-0.8,2.8,1,2.2,2.9l-4.8,13.4c-0.7,1.9,0.9,3.8,2.3,2.7l14.8-11.6c1.5-1.2,3.1,1,2.2,2.9l-30.7,65.3
			c-0.9,1.8,0.6,4,2.1,3l44.4-29c0.5-0.3,1.1-0.3,1.6,0.1l28.2,24.6c0.7,0.6,1.6,0.4,2.1-0.4l10.3-15.7c0.5-0.8,1.4-1,2.1-0.5
			l22.1,16.9c0.6,0.4,1.3,0.4,1.8-0.1l17.4-16.8c0.5-0.5,1.2-0.6,1.7-0.2l22,15c1.1,0.7,2.3-0.2,2.4-1.8l0.8-20.3
			c0.1-1.4,1.1-2.3,2.1-1.9l29.5,11.5c1.6,0.6,2.8-1.9,1.7-3.5l-49.8-69.6c-1.2-1.7,0.2-4.4,1.9-3.4l12.3,7.1c1.6,1,3.1-1.7,1.8-3.4
			l-35.9-49c-1.2-1.6,0.1-4.2,1.7-3.5l8.5,3.9c1.5,0.7,2.8-1.6,1.8-3.3l-9.1-15.4c-1.1-1.8,0.5-4.3,2.1-3.2l15.2,10.7
			c1.5,1.1,3.1-1.3,2.1-3.1l-29.3-53c-1-1.8,0.5-4.1,2-3.2l6.8,4.2c1.4,0.9,2.9-1.2,2.1-3l-4.6-10.8c-0.8-1.9,0.9-4,2.3-2.9l7.8,6.3
			c1.6,1.3,3.3-1.3,2.1-3.1l-32.2-52.8c-0.9-1.4-0.1-3.5,1.3-3.5h9.9c1.4,0,2.2-2.2,1.2-3.6l-11.4-15.7c-1.1-1.6,0-4.1,1.6-3.5
			l7.2,2.8c1.4,0.6,2.6-1.5,1.8-3.2l-28.6-60.8C92,659.5,90.5,659.5,89.9,660.8z"/>
		<polygon id="XMLID_00000161611197344083904160000006518206433598229925_" class="st12" points="-1.5,731.3 -27.6,788 -16.6,785.4 
			-41.7,831.5 -31.7,826.2 -35.7,840.7 -23.6,831.5 -56.8,882.9 -40.7,879 -47.8,893.5 -30.7,881.6 -71.9,937 -49.8,930.4 
			-58.8,948.8 -37.7,938.3 -93.1,1029.2 -66.9,1013.4 -76,1038.5 -50.8,1018.7 -88,1097.8 -37.7,1064.8 -7.5,1091.2 4.6,1072.7 
			28.7,1091.2 47.8,1072.7 73,1089.9 74,1063.5 111.2,1078 51.9,995 79,1010.8 32.7,947.5 52.9,956.7 35.8,927.7 63.9,947.5 
			26.7,880.3 43.8,890.8 33.7,867.1 54.9,884.2 14.6,818.3 31.7,818.3 13.6,793.3 30.7,799.9 		"/>
	</g>
	<g style="clip-path:url(#SVGID_00000100363740312106859660000017206308265267632512_);">
		<polygon id="XMLID_00000126286377082173141730000014527981639391593362_" class="st12" points="922.3,883.5 910.7,902.6 
			915.6,901.7 904.5,917.3 908.9,915.5 907.2,920.4 912.5,917.3 897.8,934.6 904.9,933.3 901.8,938.1 909.4,934.1 891.2,952.8 
			900.9,950.6 896.9,956.8 906.3,953.2 881.8,983.9 893.4,978.6 889.4,987 900.5,980.3 884.1,1007 906.3,995.9 919.6,1004.8 
			924.9,998.5 935.6,1004.8 944,998.5 955.1,1004.3 955.6,995.4 972,1000.3 945.8,972.3 957.8,977.7 937.4,956.3 946.3,959.5 
			938.7,949.7 951.1,956.3 934.7,933.7 942.3,937.2 937.8,929.3 947.1,935 929.4,912.8 936.9,912.8 928.9,904.4 936.5,906.6 		"/>
		<path id="XMLID_00000061455219824166219780000004111769418399993765_" class="st12" d="M1015.6,866.2l-10.1,16.7
			c-0.3,0.5,0.1,1.2,0.7,1.1l1.6-0.3c0.6-0.1,1.1,0.6,0.7,1.1l-8.6,12.1c-0.4,0.6,0.2,1.4,0.9,1.1l0.7-0.3c0.6-0.2,1.2,0.3,0.9,0.9
			l-0.5,1.5c-0.2,0.6,0.5,1.2,1,0.9l0,0c0.7-0.4,1.4,0.5,0.9,1.1l-10.7,12.6c-0.4,0.5,0,1.3,0.7,1.2l3.5-0.7
			c0.6-0.1,1.1,0.6,0.7,1.1l-0.8,1.2c-0.4,0.6,0.3,1.4,0.9,1l1.1-0.6c0.7-0.4,1.4,0.6,0.9,1.1l-13.3,13.6c-0.5,0.5,0,1.4,0.7,1.2
			l5.7-1.3c0.6-0.1,1.1,0.5,0.8,1.1l-1.9,2.9c-0.4,0.6,0.2,1.3,0.9,1.1l4.8-1.8c0.7-0.3,1.3,0.5,0.8,1.1l-20.9,26.2
			c-0.5,0.6,0.2,1.4,0.9,1.1l7-3.2c0.6-0.3,1.2,0.4,1,1l-2.1,4.5c-0.3,0.6,0.4,1.3,1,0.9l6.5-3.9c0.6-0.4,1.4,0.4,1,1l-13.6,22
			c-0.4,0.6,0.3,1.3,0.9,1l19.6-9.8c0.2-0.1,0.5-0.1,0.7,0l12.4,8.3c0.3,0.2,0.7,0.1,0.9-0.1l4.5-5.3c0.2-0.3,0.6-0.3,0.9-0.2
			l9.7,5.7c0.2,0.1,0.6,0.1,0.8,0l7.7-5.7c0.2-0.2,0.5-0.2,0.8-0.1l9.7,5.1c0.5,0.2,1-0.1,1-0.6l0.3-6.9c0-0.5,0.5-0.8,0.9-0.7
			l13,3.9c0.7,0.2,1.2-0.6,0.7-1.2l-22-23.5c-0.5-0.6,0.1-1.5,0.8-1.1l5.4,2.4c0.7,0.3,1.4-0.6,0.8-1.2l-15.8-16.5
			c-0.5-0.5,0-1.4,0.8-1.2l3.8,1.3c0.7,0.2,1.2-0.6,0.8-1.1l-4-5.2c-0.5-0.6,0.2-1.4,0.9-1.1l6.7,3.6c0.7,0.4,1.4-0.4,0.9-1.1
			l-13-17.9c-0.4-0.6,0.2-1.4,0.9-1.1l3,1.4c0.6,0.3,1.3-0.4,0.9-1l-2-3.6c-0.4-0.6,0.4-1.4,1-1l3.4,2.1c0.7,0.4,1.4-0.4,0.9-1.1
			l-14.2-17.8c-0.4-0.5,0-1.2,0.6-1.2h4.4c0.6,0,1-0.8,0.5-1.2l-5-5.3c-0.5-0.5,0-1.4,0.7-1.2l3.2,0.9c0.6,0.2,1.2-0.5,0.8-1.1
			l-12.6-20.5C1016.5,865.8,1015.9,865.8,1015.6,866.2z"/>
		<polygon id="XMLID_00000076569629319349429080000015243782956345494680_" class="st12" points="975.2,890 963.7,909.1 
			968.6,908.2 957.5,923.7 961.9,922 960.1,926.8 965.5,923.7 950.8,941.1 957.9,939.7 954.8,944.6 962.4,940.6 944.1,959.3 
			953.9,957 949.9,963.3 959.2,959.7 934.8,990.4 946.4,985 942.4,993.5 953.5,986.8 937,1013.5 959.2,1002.4 972.6,1011.2 
			977.9,1005 988.6,1011.2 997,1005 1008.1,1010.8 1008.6,1001.9 1025,1006.8 998.8,978.8 1010.8,984.1 990.3,962.8 999.2,965.9 
			991.7,956.2 1004.1,962.8 987.7,940.2 995.2,943.7 990.8,935.7 1000.1,941.5 982.3,919.3 989.9,919.3 981.9,910.9 989.5,913.1 		
			"/>
	</g>
	<g style="clip-path:url(#SVGID_00000100363740312106859660000017206308265267632512_);">
		<polygon id="XMLID_00000142152444117901757780000002567873011926028458_" class="st12" points="1092.9,889 1080.7,909.1 
			1085.9,908.2 1074.2,924.5 1078.9,922.7 1077,927.8 1082.6,924.5 1067.2,942.8 1074.7,941.4 1071.4,946.5 1079.3,942.3 
			1060.2,961.9 1070.5,959.6 1066.2,966.1 1076.1,962.4 1050.4,994.6 1062.5,989 1058.3,997.9 1070,990.9 1052.7,1019 
			1076.1,1007.3 1090.1,1016.6 1095.7,1010.1 1106.9,1016.6 1115.8,1010.1 1127.5,1016.2 1127.9,1006.8 1145.2,1011.9 1117.7,982.5 
			1130.3,988.1 1108.8,965.7 1118.1,968.9 1110.2,958.7 1123.3,965.7 1106,941.8 1113.9,945.6 1109.2,937.2 1119.1,943.2 
			1100.4,919.9 1108.3,919.9 1099.9,911 1107.8,913.3 		"/>
		<path id="XMLID_00000129918307524535446790000007772917587994893221_" class="st12" d="M1191.1,870.8l-10.6,17.6
			c-0.3,0.6,0.1,1.3,0.8,1.1l1.7-0.3c0.7-0.1,1.1,0.6,0.8,1.2l-9.1,12.7c-0.4,0.6,0.2,1.4,0.9,1.1l0.7-0.3c0.6-0.2,1.2,0.3,1,1
			l-0.6,1.6c-0.2,0.7,0.5,1.3,1.1,0.9l0,0c0.7-0.4,1.5,0.5,1,1.1l-11.2,13.2c-0.5,0.5,0,1.4,0.7,1.2l3.7-0.7
			c0.7-0.1,1.1,0.6,0.8,1.1l-0.8,1.3c-0.4,0.7,0.3,1.4,1,1.1l1.1-0.6c0.8-0.4,1.5,0.6,0.9,1.2l-14,14.3c-0.5,0.5,0,1.4,0.7,1.3
			l6-1.4c0.7-0.2,1.2,0.6,0.8,1.1l-2,3.1c-0.4,0.6,0.2,1.4,0.9,1.1l5.1-1.9c0.7-0.3,1.3,0.6,0.9,1.2l-22,27.6
			c-0.5,0.6,0.2,1.5,0.9,1.2l7.4-3.4c0.6-0.3,1.3,0.4,1,1l-2.2,4.7c-0.3,0.7,0.4,1.4,1.1,1l6.9-4.1c0.7-0.4,1.4,0.4,1,1l-14.3,23.1
			c-0.4,0.6,0.3,1.4,1,1.1l20.6-10.3c0.2-0.1,0.5-0.1,0.8,0l13.1,8.7c0.3,0.2,0.7,0.2,1-0.1l4.8-5.6c0.2-0.3,0.6-0.3,1-0.2l10.2,6
			c0.3,0.2,0.6,0.1,0.8,0l8.1-6c0.2-0.2,0.5-0.2,0.8-0.1l10.2,5.3c0.5,0.3,1.1-0.1,1.1-0.6l0.4-7.2c0-0.5,0.5-0.8,1-0.7l13.7,4.1
			c0.7,0.2,1.3-0.7,0.8-1.2L1219,966c-0.6-0.6,0.1-1.5,0.9-1.2l5.7,2.5c0.8,0.3,1.4-0.6,0.9-1.2l-16.7-17.4c-0.6-0.6,0-1.5,0.8-1.2
			l4,1.4c0.7,0.2,1.3-0.6,0.8-1.2l-4.2-5.5c-0.5-0.6,0.2-1.5,1-1.1l7.1,3.8c0.7,0.4,1.4-0.5,1-1.1l-13.6-18.8
			c-0.5-0.6,0.2-1.5,0.9-1.1l3.2,1.5c0.7,0.3,1.3-0.4,1-1.1l-2.1-3.8c-0.4-0.7,0.4-1.4,1.1-1l3.6,2.2c0.7,0.4,1.5-0.5,1-1.1
			l-15-18.7c-0.4-0.5,0-1.2,0.6-1.2h4.6c0.7,0,1-0.8,0.5-1.3l-5.3-5.6c-0.5-0.6,0-1.5,0.8-1.2l3.4,1c0.7,0.2,1.2-0.5,0.9-1.1
			l-13.3-21.6C1192.1,870.3,1191.4,870.3,1191.1,870.8z"/>
		<polygon id="XMLID_00000064352896664996388720000016990290548758168718_" class="st12" points="1148.6,895.8 1136.5,915.9 
			1141.6,915 1129.9,931.4 1134.6,929.5 1132.7,934.6 1138.3,931.4 1122.9,949.6 1130.4,948.2 1127.1,953.3 1135.1,949.1 
			1115.9,968.7 1126.2,966.4 1122,973 1131.8,969.2 1106.1,1001.5 1118.2,995.9 1114,1004.7 1125.7,997.7 1108.4,1025.8 
			1131.8,1014.1 1145.8,1023.4 1151.4,1016.9 1162.7,1023.4 1171.5,1016.9 1183.2,1023 1183.7,1013.6 1201,1018.8 1173.4,989.3 
			1186,994.9 1164.5,972.5 1173.9,975.8 1165.9,965.5 1179,972.5 1161.7,948.6 1169.7,952.4 1165,944 1174.8,950 1156.1,926.7 
			1164.1,926.7 1155.6,917.8 1163.6,920.1 		"/>
	</g>
	<g style="clip-path:url(#SVGID_00000100363740312106859660000017206308265267632512_);">
		<polygon id="XMLID_00000098920551300945343210000015255289518205836466_" class="st12" points="619.7,766.9 611.7,780.1 
			615.1,779.4 607.4,790.2 610.5,789 609.2,792.3 612.9,790.2 602.8,802.1 607.7,801.2 605.6,804.6 610.8,801.8 598.2,814.7 
			605,813.2 602.2,817.5 608.6,815 591.8,836.2 599.7,832.5 597,838.3 604.6,833.7 593.3,852.1 608.6,844.5 617.8,850.6 
			621.5,846.3 628.9,850.6 634.7,846.3 642.4,850.3 642.7,844.1 654,847.5 635.9,828.2 644.2,831.9 630.1,817.2 636.2,819.3 
			631,812.6 639.6,817.2 628.3,801.5 633.5,804 630.4,798.5 636.8,802.4 624.6,787.1 629.8,787.1 624.3,781.3 629.5,782.8 		"/>
		<path id="XMLID_00000036974497901323566090000011517598693126312378_" class="st12" d="M684.1,754.9l-7,11.5
			c-0.2,0.4,0.1,0.8,0.5,0.7l1.1-0.2c0.4-0.1,0.8,0.4,0.5,0.8l-6,8.4c-0.3,0.4,0.1,0.9,0.6,0.7l0.5-0.2c0.4-0.2,0.8,0.2,0.7,0.6
			l-0.4,1c-0.2,0.4,0.3,0.8,0.7,0.6l0,0c0.5-0.3,1,0.3,0.6,0.7l-7.4,8.7c-0.3,0.4,0,0.9,0.5,0.8l2.4-0.5c0.4-0.1,0.7,0.4,0.5,0.8
			l-0.5,0.8c-0.3,0.4,0.2,0.9,0.7,0.7l0.8-0.4c0.5-0.3,1,0.4,0.6,0.8l-9.2,9.4c-0.3,0.4,0,0.9,0.5,0.8l3.9-0.9
			c0.4-0.1,0.8,0.4,0.5,0.8l-1.3,2c-0.3,0.4,0.1,0.9,0.6,0.7l3.3-1.3c0.5-0.2,0.9,0.4,0.6,0.8l-14.4,18.1c-0.3,0.4,0.1,1,0.6,0.8
			l4.8-2.2c0.4-0.2,0.9,0.2,0.7,0.7l-1.5,3.1c-0.2,0.4,0.3,0.9,0.7,0.6l4.5-2.7c0.4-0.3,1,0.2,0.7,0.7l-9.4,15.2
			c-0.3,0.4,0.2,0.9,0.6,0.7l13.5-6.8c0.2-0.1,0.3-0.1,0.5,0l8.6,5.7c0.2,0.1,0.5,0.1,0.7-0.1l3.1-3.6c0.2-0.2,0.4-0.2,0.6-0.1
			l6.7,3.9c0.2,0.1,0.4,0.1,0.5,0l5.3-3.9c0.2-0.1,0.4-0.1,0.5,0l6.7,3.5c0.3,0.2,0.7-0.1,0.7-0.4l0.2-4.7c0-0.3,0.3-0.5,0.6-0.5
			l9,2.7c0.5,0.1,0.8-0.4,0.5-0.8l-15.2-16.2c-0.4-0.4,0.1-1,0.6-0.8l3.7,1.7c0.5,0.2,0.9-0.4,0.6-0.8L696.4,806
			c-0.4-0.4,0-1,0.5-0.8l2.6,0.9c0.5,0.2,0.9-0.4,0.6-0.8l-2.8-3.6c-0.3-0.4,0.2-1,0.6-0.7l4.6,2.5c0.5,0.2,0.9-0.3,0.6-0.7
			l-8.9-12.3c-0.3-0.4,0.1-1,0.6-0.7l2.1,1c0.4,0.2,0.9-0.3,0.6-0.7l-1.4-2.5c-0.2-0.4,0.3-0.9,0.7-0.7l2.4,1.5
			c0.5,0.3,1-0.3,0.6-0.7l-9.8-12.3c-0.3-0.3,0-0.8,0.4-0.8h3c0.4,0,0.7-0.5,0.4-0.8l-3.5-3.7c-0.3-0.4,0-1,0.5-0.8l2.2,0.6
			c0.4,0.1,0.8-0.3,0.6-0.7l-8.7-14.2C684.7,754.6,684.3,754.6,684.1,754.9z"/>
		<polygon id="XMLID_00000157986558954183382970000002043491477291668356_" class="st12" points="656.2,771.3 648.3,784.5 
			651.6,783.9 644,794.6 647,793.4 645.8,796.8 649.5,794.6 639.4,806.6 644.3,805.7 642.1,809.1 647.4,806.3 634.8,819.2 
			641.5,817.6 638.8,821.9 645.2,819.5 628.3,840.6 636.3,837 633.6,842.8 641.2,838.2 629.9,856.6 645.2,848.9 654.4,855.1 
			658.1,850.8 665.4,855.1 671.3,850.8 678.9,854.7 679.2,848.6 690.6,852 672.5,832.7 680.8,836.4 666.7,821.6 672.8,823.8 
			667.6,817 676.2,821.6 664.8,806 670,808.4 667,802.9 673.4,806.9 661.1,791.6 666.4,791.6 660.8,785.8 666.1,787.3 		"/>
	</g>
	<g style="clip-path:url(#SVGID_00000100363740312106859660000017206308265267632512_);">
		<polygon id="XMLID_00000078039117836540774120000015695411634932081574_" class="st12" points="445.5,702 437.6,715.2 
			440.9,714.6 433.3,725.3 436.3,724.1 435.1,727.5 438.8,725.3 428.7,737.3 433.6,736.4 431.4,739.7 436.7,737 424.1,749.9 
			430.8,748.3 428.1,752.6 434.5,750.2 417.6,771.3 425.6,767.6 422.9,773.5 430.5,768.9 419.2,787.3 434.5,779.6 443.7,785.7 
			447.4,781.4 454.7,785.7 460.6,781.4 468.2,785.4 468.5,779.3 479.9,782.7 461.8,763.4 470.1,767 456,752.3 462.1,754.5 
			456.9,747.7 465.5,752.3 454.1,736.7 459.3,739.1 456.3,733.6 462.7,737.6 450.5,722.3 455.7,722.3 450.1,716.4 455.4,718 		"/>
		<path id="XMLID_00000068638256074995015450000016641645717298959012_" class="st12" d="M529.4,689.1l-7,11.5
			c-0.2,0.4,0.1,0.8,0.5,0.7l1.1-0.2c0.4-0.1,0.8,0.4,0.5,0.8l-6,8.4c-0.3,0.4,0.1,0.9,0.6,0.7l0.5-0.2c0.4-0.2,0.8,0.2,0.7,0.6
			l-0.4,1c-0.2,0.4,0.3,0.8,0.7,0.6l0,0c0.5-0.3,1,0.3,0.6,0.7l-7.4,8.7c-0.3,0.4,0,0.9,0.5,0.8l2.4-0.5c0.4-0.1,0.7,0.4,0.5,0.8
			l-0.5,0.8c-0.3,0.4,0.2,0.9,0.7,0.7l0.8-0.4c0.5-0.3,1,0.4,0.6,0.8l-9.2,9.4c-0.3,0.4,0,0.9,0.5,0.8l3.9-0.9
			c0.4-0.1,0.8,0.4,0.5,0.8l-1.3,2c-0.3,0.4,0.1,0.9,0.6,0.7l3.3-1.3c0.5-0.2,0.9,0.4,0.6,0.8L503.2,756c-0.3,0.4,0.1,1,0.6,0.8
			l4.8-2.2c0.4-0.2,0.9,0.2,0.7,0.7l-1.5,3.1c-0.2,0.4,0.3,0.9,0.7,0.6l4.5-2.7c0.4-0.3,1,0.2,0.7,0.7l-9.4,15.2
			c-0.3,0.4,0.2,0.9,0.6,0.7l13.5-6.8c0.2-0.1,0.3-0.1,0.5,0l8.6,5.7c0.2,0.1,0.5,0.1,0.7-0.1l3.1-3.6c0.2-0.2,0.4-0.2,0.6-0.1
			l6.7,3.9c0.2,0.1,0.4,0.1,0.5,0l5.3-3.9c0.2-0.1,0.4-0.1,0.5,0l6.7,3.5c0.3,0.2,0.7-0.1,0.7-0.4l0.2-4.7c0-0.3,0.3-0.5,0.6-0.5
			l9,2.7c0.5,0.1,0.8-0.4,0.5-0.8l-15.2-16.2c-0.4-0.4,0.1-1,0.6-0.8l3.7,1.7c0.5,0.2,0.9-0.4,0.6-0.8l-10.9-11.4
			c-0.4-0.4,0-1,0.5-0.8l2.6,0.9c0.5,0.2,0.9-0.4,0.6-0.8l-2.8-3.6c-0.3-0.4,0.2-1,0.6-0.7l4.6,2.5c0.5,0.2,0.9-0.3,0.6-0.7
			l-8.9-12.3c-0.3-0.4,0.1-1,0.6-0.7l2.1,1c0.4,0.2,0.9-0.3,0.6-0.7l-1.4-2.5c-0.2-0.4,0.3-0.9,0.7-0.7l2.4,1.5
			c0.5,0.3,1-0.3,0.6-0.7l-9.8-12.3c-0.3-0.3,0-0.8,0.4-0.8h3c0.4,0,0.7-0.5,0.4-0.8l-3.5-3.7c-0.3-0.4,0-1,0.5-0.8l2.2,0.6
			c0.4,0.1,0.8-0.3,0.6-0.7l-8.7-14.2C530,688.8,529.6,688.8,529.4,689.1z"/>
		<polygon id="XMLID_00000054257662315992821480000000534508390146761892_" class="st12" points="495.2,716 487.2,729.2 
			490.6,728.6 482.9,739.3 486,738.1 484.8,741.5 488.4,739.3 478.3,751.3 483.2,750.4 481.1,753.8 486.3,751 473.7,763.9 
			480.5,762.3 477.7,766.6 484.2,764.2 467.3,785.3 475.3,781.7 472.5,787.5 480.2,782.9 468.8,801.3 484.2,793.6 493.4,799.7 
			497,795.5 504.4,799.7 510.2,795.5 517.9,799.4 518.2,793.3 529.5,796.7 511.4,777.4 519.7,781 505.6,766.3 511.8,768.5 
			506.5,761.7 515.1,766.3 503.8,750.7 509,753.1 505.9,747.6 512.4,751.6 500.1,736.3 505.3,736.3 499.8,730.4 505,732 		"/>
	</g>
</g>
</svg>
